<svg width="306.5936767578125px" height="80px" xmlns="http://www.w3.org/2000/svg" viewBox="96.70316162109376 35 306.5936767578125 80" style="background: rgba(0, 0, 0, 0);" preserveAspectRatio="xMidYMid"><defs><filter id="editing-extrusion" x="-100%" y="-100%" width="300%" height="300%"><feFlood result="color1" flood-color="#444"></feFlood><feConvolveMatrix order="8,8" divisor="1" kernelMatrix="1 0 0 0 0 0 0 0 0 1 0 0 0 0 0 0 0 0 1 0 0 0 0 0 0 0 0 1 0 0 0 0 0 0 0 0 1 0 0 0 0 0 0 0 0 1 0 0 0 0 0 0 0 0 1 0 0 0 0 0 0 0 0 1" in="SourceAlpha" result="extrude"></feConvolveMatrix><feComposite in="color1" in2="extrude" result="comp-extrude" operator="in"></feComposite><feOffset dx="4" dy="4" in="comp-extrude" result="offset-extrude"></feOffset><feMerge><feMergeNode in="offset-extrude"></feMergeNode><feMergeNode in="SourceGraphic"></feMergeNode></feMerge></filter></defs><g filter="url(#editing-extrusion)"><g transform="translate(145.4187948703766, 88.26000213623047)"><path d="M3.88 0L-0.49 0L6.38-25.08L14.33-25.08L16.07-10.75L23.14-25.08L29.79-25.08L30.48-6.31L30.48-6.31Q30.63-2.58 32.45-1.44L32.45-1.44L32.45-1.44Q32.03-0.68 30.82 0.04L30.82 0.04L30.82 0.04Q29.60 0.76 27.99 0.76L27.99 0.76L27.99 0.76Q26.37 0.76 25.42 0.30L25.42 0.30L25.42 0.30Q24.47-0.15 23.94-0.91L23.94-0.91L23.94-0.91Q22.99-2.28 22.99-4.90L22.99-4.90L22.99-16.64L15.50 0L10.79 0L8.13-17.06L3.88 0ZM36.82 0L39.03-11.17L39.03-11.17Q37.92-21.47 34.05-23.67L34.05-23.67L34.05-23.67Q34.85-24.66 36.14-25.21L36.14-25.21L36.14-25.21Q37.43-25.76 38.99-25.76L38.99-25.76L38.99-25.76Q40.55-25.76 41.72-25.21L41.72-25.21L41.72-25.21Q42.90-24.66 43.66-23.48L43.66-23.48L43.66-23.48Q45.11-21.24 45.11-15.88L45.11-15.88L45.11-13.15L45.11-13.15Q47.39-19.84 49.67-22.72L49.67-22.72L49.67-22.72Q51.98-25.69 54.87-25.69L54.87-25.69L54.87-25.69Q56.01-25.69 56.77-25.10L56.77-25.10L56.77-25.10Q57.53-24.51 57.91-23.64L57.91-23.64L57.91-23.64Q54.99-22.34 52.17-18.62L52.17-18.62L52.17-18.62Q49.36-14.90 47.54-9.69L47.54-9.69L45.30 0L36.82 0ZM63.31-0.19L63.31-0.19L68.10-25.08L68.10-25.08Q72.58-25.46 75.47-25.46L75.47-25.46L75.47-25.46Q78.36-25.46 80.22-25.21L80.22-25.21L80.22-25.21Q82.08-24.97 83.33-24.32L83.33-24.32L83.33-24.32Q85.84-23.10 85.84-19.76L85.84-19.76L85.84-19.76Q85.84-17.82 84.17-16.19L84.17-16.19L84.17-16.19Q82.61-14.71 80.90-14.36L80.90-14.36L80.90-14.36Q82.73-14.06 84.02-12.69L84.02-12.69L84.02-12.69Q85.39-11.25 85.39-9.01L85.39-9.01L85.39-9.01Q85.39-4.67 82.16-2.15L82.16-2.15L82.16-2.15Q78.93 0.38 72.58 0.38L72.58 0.38L72.58 0.38Q68.21 0.38 63.31-0.19ZM73.64-12.24L71.74-2.39L71.74-2.39Q72.09-2.36 72.16-2.36L72.16-2.36L72.50-2.36L72.50-2.36Q75.62-2.36 76.95-4.41L76.95-4.41L76.95-4.41Q77.94-6.00 77.94-8.93L77.94-8.93L77.94-8.93Q77.94-10.49 76.93-11.32L76.93-11.32L76.93-11.32Q75.92-12.16 73.64-12.24L73.64-12.24ZM79.42-19.72L79.42-19.72L79.42-19.72Q79.42-22.88 76.38-22.88L76.38-22.88L76.04-22.88L76.04-22.88Q75.89-22.88 75.66-22.84L75.66-22.84L74.14-14.82L74.52-14.82L74.52-14.82Q79.42-14.93 79.42-19.72ZM104.39 0.76L104.39 0.76L104.39 0.76Q99.52 0.76 99.07-6.16L99.07-6.16L92.53-6.16L92.53-6.16Q91.77-4.41 91.24-2.89L91.24-2.89L90.25 0L84.93 0L96.90-25.08L105.07-25.08L106.67-6.61L106.67-6.61Q107.05-2.62 108.57-1.44L108.57-1.44L108.57-1.44Q107.46 0.76 104.39 0.76ZM95.80-13.76L93.71-8.93L98.95-8.93L98.50-18.70L98.50-19.72L95.80-13.76ZM114.68 0L110.50 0L115.06-25.08L123.23-25.08L129.16-7.83L132.32-25.08L136.53-25.04L131.90 0L123.20 0L117.72-16.61L114.68 0ZM141.40 0L137.22 0L141.78-25.08L149.95-25.08L155.88-7.83L159.03-25.08L163.25-25.04L158.61 0L149.91 0L144.44-16.61L141.40 0ZM180.42-5.85L180.42-5.85L180.42-5.85Q181.15-4.94 181.15-3.46L181.15-3.46L181.15-3.46Q181.15-1.41 179.63-0.32L179.63-0.32L179.63-0.32Q178.11 0.76 175.71 0.76L175.71 0.76L175.71 0.76Q174.34 0.76 172.25 0.46L172.25 0.46L172.25 0.46Q168.15-0.19 166.90-0.19L166.90-0.19L166.90-0.19Q165.64-0.19 165.15-0.13L165.15-0.13L165.15-0.13Q164.65-0.08 163.86 0L163.86 0L168.53-25.08L184.91-25.08L184.91-25.08Q184.91-22.76 183.79-21.55L183.79-21.55L183.79-21.55Q182.67-20.33 180.46-20.33L180.46-20.33L180.46-20.33Q178.26-20.33 176.02-21.36L176.02-21.36L174.84-14.71L181.60-14.71L181.60-14.71Q181.60-12.69 180.61-11.57L180.61-11.57L180.61-11.57Q179.63-10.45 177.97-10.45L177.97-10.45L177.97-10.45Q176.32-10.45 175.29-10.83L175.29-10.83L175.29-10.83Q174.27-11.21 174.15-11.32L174.15-11.32L172.79-4.14L172.79-4.14Q173.70-4.03 175.41-4.03L175.41-4.03L175.41-4.03Q178.33-4.03 180.42-5.85ZM192.43 0L184.30 0L188.94-24.97L188.94-24.97Q192.70-25.38 198.19-25.38L198.19-25.38L198.19-25.38Q203.68-25.38 206.23-23.79L206.23-23.79L206.23-23.79Q208.77-22.19 208.77-18.98L208.77-18.98L208.77-18.98Q208.77-15.77 207.12-13.76L207.12-13.76L207.12-13.76Q205.47-11.74 202.62-11.10L202.62-11.10L202.62-11.10Q203.26-7.94 204.74-5.40L204.74-5.40L204.74-5.40Q206.11-3.00 207.71-2.24L207.71-2.24L207.71-2.24Q207.14-0.65 205.98 0.06L205.98 0.06L205.98 0.06Q204.82 0.76 203.17 0.76L203.17 0.76L203.17 0.76Q201.51 0.76 200.22-0.21L200.22-0.21L200.22-0.21Q198.93-1.18 197.90-2.96L197.90-2.96L197.90-2.96Q195.74-6.84 195.51-12.96L195.51-12.96L195.78-12.96L195.78-12.96Q198.59-13.03 199.99-14.50L199.99-14.50L199.99-14.50Q201.40-15.96 201.40-19.04L201.40-19.04L201.40-19.04Q201.40-22.88 198.17-23.03L198.17-23.03L197.33-23.03L197.33-23.03Q196.99-23.03 196.80-22.99L196.80-22.99L192.43 0Z" fill="#ccc"></path></g></g><style>text {
  font-size: 64px;
  font-family: Arial Black;
  dominant-baseline: central;
  text-anchor: middle;
}</style></svg>